HIERARCHY
ROOT RootJoint
{
    OFFSET   0.000000   0.000000   0.000000
    CHANNELS 6 Xposition Yposition Zposition Xrotation Yrotation Zrotation
    JOINT pelvis_lowerback
    {
        OFFSET   0.000000   0.093605   0.000000
        CHANNELS 3 Xrotation Yrotation Zrotation
        JOINT lowerback_torso
        {
            OFFSET   0.000000   0.100000   0.000000
            CHANNELS 3 Xrotation Yrotation Zrotation
            JOINT torso_head
            {
                OFFSET   0.000000   0.282350   0.000000
                CHANNELS 3 Xrotation Yrotation Zrotation
                End Site
                {
                    OFFSET   0.000000   0.192650   0.000000
                }
            }
            JOINT rTorso_Clavicle
            {
                OFFSET  -0.001000   0.157500   0.000000
                CHANNELS 3 Xrotation Yrotation Zrotation
                JOINT rShoulder
                {
                    OFFSET  -0.117647   0.000000   0.000000
                    CHANNELS 3 Xrotation Yrotation Zrotation
                    JOINT rElbow
                    {
                        OFFSET  -0.245000   0.000000   0.000000
                        CHANNELS 3 Xrotation Yrotation Zrotation
                        JOINT rWrist
                        {
                            OFFSET  -0.240000   0.000000   0.000000
                            CHANNELS 3 Xrotation Yrotation Zrotation
                            End Site
                            {
                                OFFSET  -0.116353  -0.002500   0.000000
                            }
                        }
                    }
                }
            }
            JOINT lTorso_Clavicle
            {
                OFFSET   0.001000   0.157500   0.000000
                CHANNELS 3 Xrotation Yrotation Zrotation
                JOINT lShoulder
                {
                    OFFSET   0.117647   0.000000   0.000000
                    CHANNELS 3 Xrotation Yrotation Zrotation
                    JOINT lElbow
                    {
                        OFFSET   0.245000   0.000000   0.000000
                        CHANNELS 3 Xrotation Yrotation Zrotation
                        JOINT lWrist
                        {
                            OFFSET   0.240000   0.000000   0.000000
                            CHANNELS 3 Xrotation Yrotation Zrotation
                            End Site
                            {
                                OFFSET   0.116353  -0.002500   0.000000
                            }
                        }
                    }
                }
            }
        }
    }
    JOINT rHip
    {
        OFFSET  -0.100000  -0.051395   0.000000
        CHANNELS 3 Xrotation Yrotation Zrotation
        JOINT rKnee
        {
            OFFSET   0.000000  -0.410000   0.000000
            CHANNELS 3 Xrotation Yrotation Zrotation
            JOINT rAnkle
            {
                OFFSET   0.000000  -0.390000   0.000000
                CHANNELS 3 Xrotation Yrotation Zrotation
                JOINT rToeJoint
                {
                    OFFSET   0.000000  -0.050000   0.130000
                    CHANNELS 3 Xrotation Yrotation Zrotation
                    End Site
                    {
                        OFFSET  -0.010000   0.002000   0.060000
                    }
                }
            }
        }
    }
    JOINT lHip
    {
        OFFSET   0.100000  -0.051395   0.000000
        CHANNELS 3 Xrotation Yrotation Zrotation
        JOINT lKnee
        {
            OFFSET   0.000000  -0.410000   0.000000
            CHANNELS 3 Xrotation Yrotation Zrotation
            JOINT lAnkle
            {
                OFFSET   0.000000  -0.390000   0.000000
                CHANNELS 3 Xrotation Yrotation Zrotation
                JOINT lToeJoint
                {
                    OFFSET   0.000000  -0.050000   0.130000
                    CHANNELS 3 Xrotation Yrotation Zrotation
                    End Site
                    {
                        OFFSET   0.010000   0.002000   0.060000
                    }
                }
            }
        }
    }
}
MOTION
Frames: 17
Frame Time:   0.008333
 -2.391962   0.919566   4.027087   1.859562  11.519195  -2.931559   0.142809   6.680910  -1.979592   0.255616   7.761708  -0.534248   1.766685  -0.090319  -0.059006   1.434952  10.616851   2.587115   0.431086  40.805112  57.889726   0.000417  59.061077  -0.000658  -2.326313   5.805697  -2.906847  -2.297592   9.742347  -1.249629 -14.869049  13.038019 -46.101919   0.000190 -37.370708   0.000562 -11.918310  -5.719115  23.393086   4.689717  -9.368657  -2.037400   1.957424  -0.000013  -0.000007  -1.731255 -10.577154  -0.218109  -8.390817  -0.000219   0.000280   0.450400  -1.821593   9.528946   3.186745   0.000010   0.000131  -6.152017   4.311683   2.981170   1.446351  -0.000001   0.000000
 -2.392077   0.919536   4.026958   1.850610  11.425365  -2.909633   0.149961   6.661126  -1.916797   0.258875   7.750228  -0.481780   1.746576  -0.121603  -0.014439   1.442838  10.648730   2.608581   0.425071  40.787361  57.852176   0.000504  58.960990  -0.000791  -2.337918   5.802300  -2.807823  -2.267513   9.741993  -1.257632 -14.687004  13.035999 -46.138617   0.000205 -37.442912   0.000633 -11.908760  -5.693289  23.278117   4.677891  -9.267126  -2.083427   1.946166  -0.000012  -0.000007  -1.759634 -10.436727  -0.174417  -8.310277  -0.000216   0.000324   0.489526  -1.799239   9.511758   3.141879   0.000010   0.000135  -6.130809   4.388279   2.983152   1.446493  -0.000001   0.000000
 -2.392181   0.919507   4.026817   1.843115  11.331720  -2.887527   0.158176   6.640851  -1.852734   0.262136   7.740774  -0.428008   1.726729  -0.152095   0.029938   1.446781  10.681149   2.629100   0.417485  40.770461  57.815130   0.000565  58.864994  -0.000885  -2.349530   5.782413  -2.713188  -2.233541   9.745218  -1.270334 -14.510517  13.037244 -46.176692   0.000209 -37.508322   0.000667 -11.899441  -5.662234  23.147828   4.664199  -9.167506  -2.129900   1.933576  -0.000012  -0.000006  -1.785046 -10.300844  -0.130653  -8.234982  -0.000210   0.000349   0.524620  -1.775969   9.493170   3.100115   0.000010   0.000135  -6.110227   4.463218   2.985003   1.446443  -0.000001   0.000000
 -2.392282   0.919477   4.026669   1.836765  11.242168  -2.865132   0.167202   6.621870  -1.788701   0.265717   7.732612  -0.374886   1.708239  -0.180796   0.072510   1.449172  10.711550   2.648201   0.409485  40.754431  57.780056   0.000595  58.775304  -0.000935  -2.360725   5.760516  -2.626023  -2.199959   9.749792  -1.285078 -14.343581  13.039781 -46.214108   0.000204 -37.568360   0.000673 -11.892630  -5.626527  23.017993   4.650160  -9.074220  -2.175111   1.919785  -0.000011  -0.000005  -1.809637 -10.173841  -0.089306  -8.162057  -0.000202   0.000360   0.555939  -1.753408   9.473806   3.060945   0.000010   0.000132  -6.089955   4.534267   2.986645   1.446356  -0.000001   0.000000
 -2.392385   0.919447   4.026519   1.831346  11.157689  -2.842701   0.176717   6.604564  -1.725508   0.269575   7.725545  -0.322957   1.691113  -0.207641   0.112886   1.450936  10.739896   2.666048   0.401651  40.739355  57.747188   0.000600  58.691665  -0.000949  -2.371393   5.739722  -2.544437  -2.167848   9.754860  -1.300214 -14.186835  13.042745 -46.249921   0.000192 -37.623940   0.000658 -11.887265  -5.589096  22.892362   4.636268  -8.987370  -2.218489   1.905235  -0.000011  -0.000005  -1.833928 -10.055583  -0.050457  -8.091112  -0.000193   0.000360   0.583942  -1.732070   9.454314   3.024022   0.000010   0.000127  -6.069961   4.601032   2.988201   1.446336  -0.000000   0.000000
 -2.392490   0.919417   4.026367   1.826672  11.078572  -2.820494   0.186489   6.588922  -1.663598   0.273614   7.719450  -0.272394   1.675238  -0.232709   0.150981   1.452462  10.766353   2.682802   0.394208  40.725261  57.716532   0.000586  58.613663  -0.000936  -2.381539   5.720317  -2.466941  -2.137556   9.760077  -1.314878 -14.040153  13.045766 -46.283685   0.000175 -37.675622   0.000630 -11.882585  -5.551743  22.771884   4.622796  -8.906478  -2.259745   1.890258  -0.000010  -0.000004  -1.858039  -9.945430  -0.013912  -8.022129  -0.000183   0.000353   0.609008  -1.712182   9.435219   2.989175   0.000009   0.000121  -6.050201   4.663507   2.989243   1.446337  -0.000000   0.000000
 -2.392600   0.919387   4.026216   1.822591  11.004845  -2.798702   0.196352   6.574843  -1.603249   0.277747   7.714224  -0.223270   1.660505  -0.256104   0.186832   1.453915  10.791079   2.698581   0.387227  40.712129  57.688017   0.000559  58.540903  -0.000903  -2.391190   5.702157  -2.392725  -2.109174   9.765284  -1.328646 -13.903137  13.048678 -46.315226   0.000156 -37.723795   0.000594 -11.878188  -5.515382  22.656797   4.609901  -8.831061  -2.298734   1.875093  -0.000009  -0.000004  -1.881953  -9.842754   0.020513  -7.955152  -0.000174   0.000341   0.631452  -1.693807   9.416806   2.956280   0.000009   0.000113  -6.030800   4.721768   2.990297   1.446486  -0.000000   0.000000
 -2.392679   0.919351   4.026069   1.803615  10.922250  -2.766126   0.217523   6.556018  -1.546082   0.287015   7.705576  -0.172326   1.646094  -0.285239   0.231303   1.449876  10.819809   2.721417   0.361236  40.698179  57.661053   0.000583  58.459432  -0.000932  -2.393033   5.681690  -2.306610  -2.070559   9.771048  -1.342292 -13.709010  13.013887 -46.357601   0.000148 -37.750726   0.000551 -11.849247  -5.492630  22.554102   4.604427  -8.738336  -2.354823   1.872116  -0.000008  -0.000003  -1.919185  -9.710481   0.054716  -7.884232  -0.000167   0.000359   0.683557  -1.673180   9.386683   2.899893   0.000008   0.000124  -6.004502   4.789454   3.006765   1.449075  -0.000000   0.000000
 -2.392751   0.919316   4.025918   1.785233  10.843660  -2.733205   0.237394   6.534059  -1.487254   0.296317   7.695038  -0.121190   1.632861  -0.313359   0.275103   1.442772  10.846796   2.744033   0.333900  40.684715  57.635614   0.000599  58.383289  -0.000947  -2.394741   5.660916  -2.233346  -2.029970   9.777507  -1.361645 -13.522315  12.983070 -46.402275   0.000137 -37.773496   0.000502 -11.822889  -5.459869  22.438012   4.598381  -8.648695  -2.410852   1.870223  -0.000007  -0.000003  -1.956855  -9.584321   0.088600  -7.814178  -0.000160   0.000369   0.733447  -1.653314   9.355745   2.844663   0.000007   0.000130  -5.977910   4.853547   3.022242   1.451421  -0.000001   0.000000
 -2.392826   0.919280   4.025768   1.768092  10.768975  -2.700902   0.255838   6.512149  -1.427886   0.304518   7.684108  -0.070960   1.620581  -0.339817   0.317068   1.434989  10.871698   2.765282   0.307372  40.671894  57.611702   0.000600  58.312492  -0.000942  -2.396327   5.642725  -2.168585  -1.990904   9.783706  -1.383613 -13.346301  12.954879 -46.446880   0.000126 -37.793980   0.000454 -11.799799  -5.422347  22.319797   4.592272  -8.564667  -2.464487   1.867520  -0.000006  -0.000002  -1.994210  -9.466398   0.120807  -7.744248  -0.000154   0.000371   0.779719  -1.634164   9.325473   2.792377   0.000007   0.000132  -5.952090   4.913993   3.036708   1.453668  -0.000001   0.000000
 -2.392908   0.919244   4.025618   1.752119  10.698009  -2.669493   0.272847   6.491125  -1.368950   0.311564   7.673328  -0.022032   1.609101  -0.364568   0.356866   1.427278  10.894775   2.785119   0.282251  40.659797  57.589271   0.000589  58.246573  -0.000919  -2.397777   5.626671  -2.108921  -1.954161   9.789299  -1.406185 -13.181409  12.928569 -46.490116   0.000115 -37.812865   0.000409 -11.778608  -5.383769  22.203267   4.586404  -8.486276  -2.515132   1.863778  -0.000005  -0.000002  -2.031197  -9.356432   0.151296  -7.674387  -0.000147   0.000367   0.822549  -1.615723   9.296456   2.743138   0.000006   0.000130  -5.927267   4.971013   3.050326   1.455915  -0.000001   0.000000
 -2.392999   0.919207   4.025471   1.737166  10.630721  -2.639137   0.288485   6.471172  -1.311024   0.317558   7.662868   0.025440   1.598337  -0.387684   0.394412   1.419916  10.916210   2.803622   0.258693  40.648432  57.568258   0.000569  58.185134  -0.000884  -2.399102   5.612151  -2.052744  -1.919936   9.794233  -1.428267 -13.027408  12.903793 -46.531299   0.000104 -37.830484   0.000367 -11.758525  -5.345973  22.089906   4.580930  -8.413153  -2.562590   1.859114  -0.000005  -0.000002  -2.067766  -9.253863   0.180184  -7.604813  -0.000142   0.000358   0.862205  -1.598043   9.269023   2.696849   0.000006   0.000126  -5.903478   5.024746   3.063208   1.458215  -0.000001   0.000000
 -2.393098   0.919170   4.025327   1.723092  10.567064  -2.609920   0.302840   6.452312  -1.254433   0.322625   7.652780   0.071379   1.588237  -0.409263   0.429729   1.413011  10.936123   2.820856   0.236721  40.637762  57.548572   0.000542  58.127839  -0.000840  -2.400315   5.598778  -1.999326  -1.888204   9.798548  -1.449303 -12.883809  12.880372 -46.570125   0.000093 -37.847022   0.000328 -11.739156  -5.309793  21.980382   4.575922  -8.344898  -2.606841   1.853694  -0.000004  -0.000002  -2.103862  -9.158138   0.207593  -7.535742  -0.000136   0.000345   0.898935  -1.581180   9.243355   2.653376   0.000006   0.000120  -5.880645   5.075329   3.075161   1.601113  -0.000013   0.000000
 -2.393178   0.919131   4.025208   1.712200  10.499601  -2.577810   0.298131   6.433692  -1.197796   0.339570   7.638980   0.119173   1.583597  -0.441200   0.478333   1.414852  10.953220   2.831460   0.195768  40.615232  57.551456   0.000556  58.057972  -0.000861  -2.405501   5.601705  -1.940287  -1.842890   9.804022  -1.461480 -12.675673  12.822131 -46.637365   0.000094 -37.863960   0.000312 -11.699330  -5.294121  21.877310   4.576408  -8.258950  -2.658081   1.833207  -0.000006  -0.000005  -2.136745  -9.052548   0.236429  -7.465297  -0.000133   0.000351   0.944596  -1.556546   9.213736   2.588189   0.000006   0.000123  -5.847816   5.123706   3.081148   1.573849  -0.000010   0.000000
 -2.393264   0.919089   4.025088   1.703134  10.434777  -2.545526   0.292304   6.413435  -1.140003   0.355758   7.623795   0.165696   1.578975  -0.471752   0.525987   1.418331  10.966741   2.840943   0.159594  40.592590  57.553445   0.000561  57.991648  -0.000870  -2.411181   5.599891  -1.888903  -1.795390   9.811299  -1.480518 -12.474972  12.769619 -46.706830   0.000091 -37.878124   0.000290 -11.660761  -5.273564  21.757557   4.576851  -8.176226  -2.708317   1.810157  -0.000008  -0.000008  -2.170066  -8.952247   0.264749  -7.392223  -0.000131   0.000356   0.987166  -1.532558   9.184004   2.524045   0.000007   0.000124  -5.814901   5.169783   3.086530   1.552200  -0.000007   0.000000
 -2.393366   0.919046   4.024967   1.695126  10.372250  -2.513742   0.286942   6.393220  -1.082409   0.371097   7.608453   0.210264   1.574465  -0.500389   0.571452   1.422792  10.977894   2.849323   0.127490  40.570524  57.554488   0.000554  57.929258  -0.000862  -2.416790   5.595522  -1.841840  -1.749317   9.818965  -1.503216 -12.285280  12.721564 -46.775096   0.000087 -37.890391   0.000265 -11.625962  -5.247844  21.635252   4.577032  -8.098658  -2.755689   1.786344  -0.000009  -0.000010  -2.204533  -8.858480   0.291793  -7.316308  -0.000130   0.000356   1.026263  -1.509225   9.155614   2.463229   0.000007   0.000123  -5.783102   5.213814   3.091609   1.535257  -0.000005   0.000000
 -2.393488   0.919002   4.024844   1.687889  10.311977  -2.482833   0.282251   6.373546  -1.025935   0.385712   7.593356   0.252819   1.570204  -0.527148   0.614449   1.427816  10.987408   2.856789   0.098703  40.549349  57.554890   0.000538  57.870704  -0.000839  -2.422230   5.589685  -1.797457  -1.705593   9.826394  -1.527259 -12.107162  12.677007 -46.840772   0.000081 -37.901380   0.000240 -11.593942  -5.219612  21.514582   4.577099  -8.026134  -2.799538   1.762144  -0.000009  -0.000011  -2.240006  -8.770912   0.317592  -7.238114  -0.000130   0.000352   1.062122  -1.486571   9.129291   2.405926   0.000008   0.000119  -5.752588   5.255898   3.096546   1.522222  -0.000003   0.000000
